<?xml version="1.0" standalone="no"?>
<!DOCTYPE svg PUBLIC "-//W3C//DTD SVG 20010904//EN"
 "http://www.w3.org/TR/2001/REC-SVG-20010904/DTD/svg10.dtd">
<svg version="1.0" xmlns="http://www.w3.org/2000/svg"
 width="1024.000000pt" height="1024.000000pt" viewBox="0 0 1024.000000 1024.000000"
 preserveAspectRatio="xMidYMid meet">

<g transform="translate(0.000000,1024.000000) scale(0.100000,-0.100000)"
fill="#000000" stroke="none">
<path d="M1360 5924 c-96 -25 -161 -64 -235 -138 -76 -76 -115 -144 -140 -241
-29 -113 -14 -259 37 -359 39 -76 116 -161 470 -513 305 -303 359 -352 391
-358 28 -5 44 -3 65 11 38 25 514 503 655 659 87 96 128 149 153 202 112 232
40 524 -165 662 -78 53 -161 81 -256 88 -147 10 -271 -35 -376 -137 l-58 -57
-53 54 c-118 121 -317 172 -488 127z m416 -438 c29 -13 70 -41 93 -61 l41 -37
37 32 c55 48 109 70 178 70 146 0 248 -104 247 -252 -1 -75 -32 -129 -139
-241 -75 -78 -109 -123 -146 -192 -26 -49 -58 -103 -72 -120 l-25 -30 -21 25
c-19 22 -20 34 -17 138 l3 113 70 66 c39 37 94 89 122 116 63 59 75 99 46 149
-21 37 -71 56 -117 44 -15 -4 -60 -36 -101 -72 l-75 -65 -78 74 c-95 89 -128
104 -181 88 -29 -8 -43 -20 -56 -47 -31 -67 -12 -98 154 -246 l74 -66 -12
-103 c-6 -57 -16 -108 -21 -113 -18 -18 -43 7 -95 95 -31 51 -90 125 -152 190
-108 115 -123 142 -123 232 0 174 200 290 366 213z"/>
<path d="M3306 5614 c-3 -8 -6 -225 -6 -480 l0 -464 85 0 85 0 1 358 c0 196 3
350 6 342 6 -14 202 -446 234 -513 12 -27 14 -28 86 -25 l74 3 85 185 c47 102
97 213 111 248 14 34 28 64 32 67 4 2 6 -146 3 -330 l-4 -335 86 0 86 0 0 480
0 480 -94 0 c-65 0 -97 -4 -103 -12 -15 -24 -180 -374 -224 -475 -24 -56 -46
-102 -49 -102 -3 0 -45 88 -94 197 -49 108 -109 240 -133 292 l-43 95 -109 3
c-92 2 -110 0 -115 -14z"/>
<path d="M4468 5623 c-9 -2 -24 -16 -33 -30 -45 -67 -3 -148 76 -148 34 0 46
6 70 33 39 43 38 84 0 123 -29 28 -64 35 -113 22z"/>
<path d="M6000 5618 c-1 -7 0 -93 0 -190 0 -98 -1 -178 -4 -178 -3 0 -19 13
-37 30 -63 57 -166 75 -267 45 -72 -22 -150 -96 -188 -177 -25 -55 -29 -75
-28 -153 0 -115 32 -194 106 -260 110 -98 283 -104 381 -11 15 14 30 26 33 26
3 0 3 -18 0 -40 l-5 -40 84 0 85 0 0 480 0 480 -80 0 c-57 0 -80 -4 -80 -12z
m-94 -437 c66 -30 89 -77 89 -183 0 -81 -2 -88 -31 -125 -115 -145 -317 -65
-317 126 0 154 126 242 259 182z"/>
<path d="M6280 5560 l0 -70 125 0 125 0 0 -410 0 -410 80 0 80 0 0 410 0 410
150 0 150 0 0 70 0 70 -355 0 -355 0 0 -70z"/>
<path d="M8810 5150 l0 -480 80 0 80 0 0 113 0 113 35 34 c19 18 37 31 40 28
3 -3 47 -68 99 -144 l93 -139 86 -3 c57 -2 87 1 87 8 0 6 -41 68 -92 138 -50
70 -109 153 -131 184 l-40 57 100 108 c56 59 110 117 122 127 11 11 21 23 21
28 0 4 -38 8 -84 8 l-85 0 -123 -134 -123 -135 -3 285 -2 284 -80 0 -80 0 0
-480z"/>
<path d="M5016 5326 c-21 -8 -56 -32 -77 -52 l-39 -38 0 47 0 47 -85 0 -85 0
0 -330 0 -330 84 0 85 0 3 214 c3 235 4 240 72 290 39 29 133 29 173 0 52 -38
63 -94 60 -312 l-2 -192 83 0 83 0 -3 238 c-3 223 -4 240 -26 287 -28 61 -55
91 -107 118 -52 26 -165 33 -219 13z"/>
<path d="M7255 5327 c-53 -21 -76 -38 -95 -70 l-20 -32 0 53 0 52 -85 0 -85 0
0 -330 0 -330 85 0 85 0 0 195 c0 143 4 204 14 228 26 63 102 107 184 107 l32
0 0 70 0 70 -42 -1 c-24 0 -56 -6 -73 -12z"/>
<path d="M7655 5336 c-5 -3 -27 -7 -47 -11 -38 -6 -158 -79 -158 -96 0 -6 16
-27 36 -48 l35 -39 59 31 c124 63 251 28 262 -73 3 -25 2 -25 -102 -31 -128
-6 -194 -27 -254 -80 -83 -73 -86 -191 -7 -270 42 -42 91 -59 174 -59 68 0
110 16 160 59 l36 32 3 -38 3 -38 78 -3 77 -3 0 212 c0 165 -4 226 -16 270
-32 114 -119 178 -253 185 -42 2 -80 2 -86 0z m193 -411 c-7 -88 -66 -135
-168 -135 -63 0 -100 30 -100 83 0 64 80 104 214 106 l58 1 -4 -55z"/>
<path d="M8367 5330 c-101 -26 -191 -103 -228 -198 -18 -43 -23 -78 -24 -142
0 -77 3 -92 33 -152 59 -121 159 -179 305 -180 67 0 86 4 142 31 57 28 115 79
115 100 0 9 -96 71 -109 71 -5 0 -14 -7 -21 -16 -33 -38 -128 -56 -187 -33
-151 57 -150 317 2 374 58 23 106 15 161 -25 l43 -31 51 37 c27 20 50 41 50
48 0 21 -63 74 -115 97 -56 25 -159 34 -218 19z"/>
<path d="M4420 5000 l0 -330 85 0 85 0 -2 328 -3 327 -82 3 -83 3 0 -331z"/>
</g>
</svg>
